<svg xmlns="http://www.w3.org/2000/svg" version="1.1" xmlns:xlink="http://www.w3.org/1999/xlink" width="1500" height="142" viewBox="0 0 1500 142"><svg xml:space="preserve" width="1500" height="142" data-version="2" data-id="lg_RPjVGN0Cm1jYFew3WA" viewBox="0 0 163 142" x="0" y="0"><rect width="100%" height="100%" fill="transparent"></rect><g transform="matrix(1.692 0 0 2.112 98.5 55.37)"><linearGradient id="a" x1="0" x2="1" y1="0" y2="0" gradientUnits="objectBoundingBox"><stop offset="0%" stop-color="#6ee2f5"></stop><stop offset="100%" stop-color="#6454f0"></stop></linearGradient><path fill="url(#a)" d="M85.9 41.8c1.4-1.9 2.2-4.3 2.2-6.8 0-6.5-5.3-11.9-11.9-11.9-2.6 0-4.9.8-6.9 2.2-2.5-4.8-7.5-8.1-13.3-8.1-8 0-14.5 6.2-15 14.1-10.1 0-18.3 8.2-18.3 18.3C22.7 59.7 30.8 68 41 68c4.8 0 9.2-1.9 12.5-4.9 2.7 3 6.7 4.9 11.1 4.9 3.9 0 7.5-1.5 10.2-4 2.4 2.5 5.7 4 9.4 4 7.3 0 13.2-5.9 13.2-13.2-.1-6.6-5.1-12.1-11.5-13" transform="translate(-60.05 -42.6)"></path></g><g transform="matrix(1.692 0 0 2.112 36.15 81.35)"><linearGradient id="b" x1="0" x2="1" y1="0" y2="0" gradientUnits="objectBoundingBox"><stop offset="0%" stop-color="#6ee2f5"></stop><stop offset="100%" stop-color="#6454f0"></stop></linearGradient><path fill="url(#b)" d="m30 72.6 1-1.7C23 67.3 17.4 59.3 17.4 50c0-4.3 1.2-8.3 3.3-11.8l-1.7-1c-2.3 3.8-3.6 8.2-3.6 12.8 0 10 6 18.7 14.6 22.6" transform="translate(-23.2 -54.9)"></path></g><g transform="matrix(1.692 0 0 2.112 29.13 83.36)"><linearGradient id="c" x1="0" x2="1" y1="0" y2="0" gradientUnits="objectBoundingBox"><stop offset="0%" stop-color="#6ee2f5"></stop><stop offset="100%" stop-color="#6454f0"></stop></linearGradient><path fill="url(#c)" d="m27.4 77.2 1-1.7c-9.8-4.4-16.7-14.2-16.7-25.7 0-5.2 1.4-10.1 4-14.4l-1.8-.9c-2.7 4.5-4.2 9.8-4.2 15.3 0 12.2 7.2 22.7 17.7 27.4" transform="translate(-19.05 -55.85)"></path></g><g transform="matrix(1.692 0 0 2.112 20.33 85.78)"><linearGradient id="d" x1="0" x2="1" y1="0" y2="0" gradientUnits="objectBoundingBox"><stop offset="0%" stop-color="#6ee2f5"></stop><stop offset="100%" stop-color="#6454f0"></stop></linearGradient><path fill="url(#d)" d="M4.7 49.5c0-6.3 1.7-12.2 4.7-17.4l-1.8-.9c-3.2 5.5-5 11.8-5 18.4 0 14.8 8.8 27.5 21.5 33.2l1-1.7c-12-5.5-20.4-17.5-20.4-31.6" transform="translate(-13.85 -57)"></path></g></svg></svg>